<svg width="300" height="400" viewBox="0 0 300 400" xmlns="http://www.w3.org/2000/svg">
    <!-- Фон -->
    <rect width="300" height="400" fill="#f5f1ea" rx="12" ry="12"/>

    <!-- Тонкая рамка -->
    <rect x="1" y="1" width="298" height="398" fill="none" stroke="#9c6644" stroke-width="1" rx="11" ry="11" stroke-opacity="0.2"/>

    <!-- Центральный элемент -->
    <rect x="40" y="70" width="220" height="180" fill="#e6d7cc" rx="8" ry="8"/>

    <!-- Декоративные элементы -->
    <circle cx="150" cy="140" r="30" fill="#9c6644" fill-opacity="0.3"/>
    <polygon points="120,190 180,190 150,160" fill="#9c6644" fill-opacity="0.4"/>

    <!-- Пунктирная рамка -->
    <rect x="50" y="80" width="200" height="160" fill="none" stroke="#9c6644" stroke-width="2" stroke-dasharray="6,4" rx="4" ry="4" stroke-opacity="0.3"/>

    <!-- Иконка -->
    <g transform="translate(125, 140)">
        <path d="M24 2.5a4 4 0 1 1-8 0 4 4 0 0 1 8 0zm-8 14a4 4 0 1 1-8 0 4 4 0 0 1 8 0zm-8-14a4 4 0 1 1-8 0 4 4 0 0 1 8 0zm32 0a4 4 0 1 1-8 0 4 4 0 0 1 8 0z" fill="#9c6644" fill-opacity="0.6" transform="scale(0.8)"/>
    </g>

    <!-- Текст -->
    <text x="150" y="280" text-anchor="middle" font-family="Arial, sans-serif" font-size="16" fill="#9c6644">Изображение отсутствует</text>
    <text x="150" y="305" text-anchor="middle" font-family="Arial, sans-serif" font-size="14" fill="#9c6644" fill-opacity="0.7">Проверьте URL или сетевое соединение</text>

    <!-- Дополнительные декоративные элементы -->
    <rect x="40" y="330" width="80" height="10" rx="5" ry="5" fill="#9c6644" fill-opacity="0.2"/>
    <rect x="130" y="330" width="130" height="10" rx="5" ry="5" fill="#9c6644" fill-opacity="0.1"/>
    <rect x="40" y="350" width="120" height="10" rx="5" ry="5" fill="#9c6644" fill-opacity="0.15"/>
    <rect x="170" y="350" width="90" height="10" rx="5" ry="5" fill="#9c6644" fill-opacity="0.08"/>
</svg>